<?xml version="1.0" standalone="no"?>
<!DOCTYPE svg PUBLIC "-//W3C//DTD SVG 20010904//EN"
 "http://www.w3.org/TR/2001/REC-SVG-20010904/DTD/svg10.dtd">
<svg version="1.0" xmlns="http://www.w3.org/2000/svg"
 width="512.000000pt" height="512.000000pt" viewBox="0 0 512.000000 512.000000"
 preserveAspectRatio="xMidYMid meet">

<g transform="translate(0.000000,512.000000) scale(0.100000,-0.100000)"
fill="#000000" stroke="none">
<path d="M2848 5071 l-33 -29 0 -2482 0 -2482 33 -29 32 -29 313 0 c273 0 316
2 336 16 54 38 51 -111 51 2526 0 2306 -1 2445 -18 2478 -29 59 -36 60 -374
60 l-308 0 -32 -29z"/>
<path d="M4134 4321 c-17 -10 -36 -32 -42 -47 -9 -22 -12 -527 -10 -2112 l3
-2084 33 -29 32 -29 313 0 c347 0 345 0 373 66 21 51 21 4138 0 4189 -26 63
-40 65 -373 65 -274 0 -300 -2 -329 -19z"/>
<path d="M343 3569 c-18 -5 -41 -22 -50 -36 -17 -26 -18 -125 -21 -1713 -2
-1175 0 -1696 8 -1722 6 -20 22 -46 37 -57 25 -20 38 -21 339 -21 l314 0 32
29 33 29 3 1704 c2 1606 1 1705 -15 1738 -12 24 -29 39 -53 47 -43 14 -578 16
-627 2z"/>
<path d="M1578 2531 l-33 -29 0 -1212 0 -1212 33 -29 32 -29 313 0 c273 0 316
2 336 16 53 37 51 -7 51 1256 0 1097 -1 1175 -18 1208 -29 59 -36 60 -374 60
l-308 0 -32 -29z"/>
</g>
</svg>
