<?xml version="1.0" standalone="no"?>
<!DOCTYPE svg PUBLIC "-//W3C//DTD SVG 20010904//EN"
 "http://www.w3.org/TR/2001/REC-SVG-20010904/DTD/svg10.dtd">
<svg version="1.0" xmlns="http://www.w3.org/2000/svg"
 width="512.000000pt" height="512.000000pt" viewBox="0 0 512.000000 512.000000"
 preserveAspectRatio="xMidYMid meet">
<g transform="translate(0.000000,512.000000) scale(0.100000,-0.100000)"
fill="#000000" stroke="none">
<path d="M1069 4510 c-387 -81 -700 -396 -780 -784 -17 -84 -19 -146 -19 -846
0 -700 2 -762 19 -846 77 -374 355 -666 736 -775 79 -23 87 -23 795 -29 l715
-5 632 -317 c541 -272 639 -318 676 -318 49 0 97 27 131 73 20 27 21 43 24
302 l3 273 70 16 c377 85 681 397 760 781 17 83 19 148 19 845 0 700 -2 762
-19 846 -81 391 -394 704 -785 785 -87 18 -158 19 -1491 18 -1312 0 -1405 -2
-1486 -19z m2931 -316 c196 -46 372 -187 460 -369 71 -146 70 -125 70 -945 0
-820 1 -799 -70 -945 -107 -222 -316 -362 -571 -385 -115 -10 -153 -27 -186
-86 -21 -37 -23 -50 -23 -246 0 -115 -2 -208 -5 -208 -3 0 -245 120 -538 267
l-532 268 -735 5 -735 5 -65 23 c-190 69 -329 190 -410 357 -71 146 -70 125
-70 945 0 820 -1 799 70 945 87 179 264 323 455 369 93 22 2790 23 2885 0z"/>
</g>
</svg>
