<?xml version="1.0" standalone="no"?>
<!DOCTYPE svg PUBLIC "-//W3C//DTD SVG 20010904//EN"
 "http://www.w3.org/TR/2001/REC-SVG-20010904/DTD/svg10.dtd">
<svg version="1.0" xmlns="http://www.w3.org/2000/svg"
 width="512.000000pt" height="512.000000pt" viewBox="0 0 512.000000 512.000000"
 preserveAspectRatio="xMidYMid meet">

<g transform="translate(0.000000,512.000000) scale(0.100000,-0.100000)"
fill="#000000" stroke="none">
<path d="M2430 4628 c-369 -19 -717 -138 -1035 -354 -60 -41 -123 -86 -139
-100 -25 -22 -27 -27 -14 -42 8 -9 108 -128 221 -264 l207 -247 73 54 c138
103 314 184 507 233 97 25 121 27 310 27 189 0 213 -2 310 -27 274 -69 473
-181 665 -373 124 -124 201 -232 274 -386 78 -163 131 -376 131 -526 l0 -63
-238 -2 -239 -3 413 -473 413 -473 414 473 413 473 -241 5 -240 5 -6 125 c-26
494 -239 969 -599 1331 -174 176 -343 296 -565 404 -327 160 -653 224 -1035
203z"/>
<path d="M417 3038 l-413 -473 241 -5 240 -5 6 -125 c37 -709 462 -1367 1101
-1704 206 -109 444 -186 682 -221 127 -18 402 -21 532 -5 312 38 626 152 882
319 93 61 200 141 201 151 1 3 -98 123 -219 267 l-220 262 -72 -54 c-94 -71
-308 -178 -423 -210 -333 -95 -682 -68 -984 76 -154 73 -262 150 -386 274
-241 241 -383 547 -402 867 l-6 108 240 2 240 3 -413 473 -413 473 -414 -473z"/>
</g>
</svg>
